<?xml version="1.0" standalone="no"?>
<!DOCTYPE svg PUBLIC "-//W3C//DTD SVG 20010904//EN"
 "http://www.w3.org/TR/2001/REC-SVG-20010904/DTD/svg10.dtd">
<svg version="1.0" xmlns="http://www.w3.org/2000/svg"
 width="512.000000pt" height="512.000000pt" viewBox="0 0 512.000000 512.000000"
 preserveAspectRatio="xMidYMid meet">

<g transform="translate(0.000000,512.000000) scale(0.100000,-0.100000)"
fill="#000000" stroke="none">
<path d="M2874 4493 c-341 -340 -913 -913 -1273 -1274 l-653 -656 1274 -1278
1273 -1278 339 334 c274 270 338 338 330 351 -10 19 -166 177 -1152 1173
l-692 699 602 606 c959 962 1250 1257 1250 1265 0 4 -9 17 -20 28 -29 33 -592
588 -628 620 l-31 28 -619 -618z"/>
</g>
</svg>
