<?xml version="1.0" standalone="no"?>
<!DOCTYPE svg PUBLIC "-//W3C//DTD SVG 20010904//EN"
 "http://www.w3.org/TR/2001/REC-SVG-20010904/DTD/svg10.dtd">
<svg version="1.0" xmlns="http://www.w3.org/2000/svg"
 width="512.000000pt" height="512.000000pt" viewBox="0 0 512.000000 512.000000"
 preserveAspectRatio="xMidYMid meet">

<g transform="translate(0.000000,512.000000) scale(0.100000,-0.100000)"
fill="#000000" stroke="none">
<path d="M2150 5101 c-25 -7 -26 -14 -90 -391 l-65 -383 -110 -44 c-148 -59
-159 -62 -180 -50 -10 5 -152 105 -314 221 -163 117 -301 215 -307 218 -5 4
-151 -133 -322 -305 l-312 -312 197 -275 c281 -394 263 -366 253 -398 -5 -15
-28 -76 -53 -137 l-44 -110 -383 -65 -384 -65 -8 -33 c-12 -47 -6 -838 7 -851
6 -5 181 -38 389 -73 l379 -63 44 -110 c68 -170 67 -157 26 -217 -34 -50 -362
-510 -407 -571 l-20 -28 309 -309 c171 -171 316 -308 323 -305 6 2 154 106
327 229 l316 226 62 -25 c34 -13 96 -37 137 -53 l75 -30 65 -383 c63 -368 66
-382 89 -391 34 -12 847 -6 860 7 5 6 38 180 73 388 l63 378 135 54 c95 38
139 51 151 44 9 -5 151 -105 316 -222 164 -117 305 -217 312 -221 9 -6 103 82
322 300 170 170 307 314 305 320 -2 6 -101 146 -219 312 -119 165 -220 309
-225 319 -8 14 2 50 43 153 l54 135 373 62 c205 35 378 65 385 68 11 3 13 96
11 447 l-3 443 -385 65 -384 65 -27 70 c-15 39 -38 100 -52 137 l-26 67 230
323 230 322 -313 313 c-186 186 -316 309 -323 305 -6 -4 -128 -91 -271 -193
-378 -271 -359 -259 -392 -249 -15 5 -76 29 -137 53 l-109 45 -64 378 c-35
209 -68 384 -73 389 -12 12 -819 18 -859 6z m684 -238 c3 -16 31 -179 61 -363
31 -184 59 -338 63 -341 4 -3 57 -23 117 -43 61 -21 166 -64 234 -97 68 -32
128 -56 135 -52 6 4 112 80 236 168 287 205 346 245 362 245 8 0 92 -78 187
-174 l173 -174 -33 -49 c-18 -26 -115 -164 -216 -305 l-183 -256 60 -124 c32
-68 76 -172 96 -233 20 -60 40 -113 43 -117 5 -5 698 -128 724 -128 4 0 7
-117 7 -259 l0 -259 -27 -6 c-16 -3 -179 -31 -363 -61 -184 -31 -338 -59 -341
-63 -3 -4 -23 -56 -43 -117 -20 -60 -64 -166 -97 -234 l-59 -123 212 -299
c117 -164 214 -302 215 -306 2 -5 -78 -89 -176 -187 -136 -135 -183 -177 -193
-169 -7 5 -144 103 -305 217 l-292 207 -108 -54 c-59 -30 -155 -71 -213 -92
-145 -52 -156 -58 -164 -97 -4 -18 -29 -168 -56 -333 -28 -165 -53 -312 -56
-328 l-6 -27 -259 0 c-142 0 -259 3 -259 8 0 16 -120 716 -123 719 -2 2 -60
23 -128 48 -68 25 -175 70 -237 100 l-113 55 -257 -183 c-141 -101 -279 -198
-305 -216 l-49 -33 -174 173 c-96 95 -174 179 -174 187 0 17 44 81 245 362 88
124 164 230 168 236 4 7 -20 67 -52 135 -33 68 -76 174 -97 234 -20 61 -40
113 -43 117 -3 3 -157 32 -341 62 -184 31 -347 59 -363 62 l-27 6 0 259 c0
142 3 259 7 259 27 0 719 122 724 128 3 4 25 61 48 127 24 66 67 171 97 234
l54 114 -182 256 c-100 141 -194 274 -210 295 -15 22 -28 47 -28 55 0 21 330
351 350 351 9 0 34 -13 56 -28 21 -16 154 -110 295 -210 l256 -182 124 59 c68
32 176 77 240 100 111 40 117 44 123 74 8 39 116 684 116 691 0 4 117 6 259 6
l259 0 6 -27z"/>
<path d="M2435 3304 c-82 -22 -152 -47 -202 -72 -180 -92 -316 -251 -383 -452
-27 -81 -37 -246 -21 -349 40 -257 236 -486 502 -587 70 -27 82 -28 239 -28
155 0 169 1 235 26 239 92 392 244 482 483 25 65 27 82 28 230 0 179 -7 210
-77 346 -95 186 -272 331 -470 385 -53 15 -296 28 -333 18z m280 -119 c136
-35 242 -100 339 -207 186 -205 209 -528 55 -764 -86 -133 -234 -240 -385
-278 -78 -20 -220 -20 -304 0 -203 47 -377 203 -452 406 -40 106 -50 265 -24
368 55 220 239 408 460 471 78 22 231 24 311 4z"/>
</g>
</svg>
